<?xml version="1.0" encoding="UTF-8"?>
<svg width="759px" height="256px" viewBox="0 0 759 256" version="1.1" xmlns="http://www.w3.org/2000/svg" xmlns:xlink="http://www.w3.org/1999/xlink">
    <!-- Generator: Sketch 46.2 (44496) - http://www.bohemiancoding.com/sketch -->
    <title>Chronograph Logo Rect</title>
    <desc>Created with Sketch.</desc>
    <defs></defs>
    <g id="Page-1" stroke="none" stroke-width="1" fill="none" fill-rule="evenodd">
        <g id="Chronograph-Logo-Rect">
            <g id="Group" transform="translate(43.000000, 39.000000)" fill-rule="nonzero" fill="#FF007B">
                <path d="M91,152 C57.3106303,152 30,124.68937 30,91 C30,57.3106303 57.3106303,30 91,30 C124.68937,30 152,57.3106303 152,91 C152,124.68937 124.68937,152 91,152 Z M91,118.915254 C106.417169,118.915254 118.915254,106.417169 118.915254,91 C118.915254,75.5828308 106.417169,63.0847458 91,63.0847458 C75.5828308,63.0847458 63.0847458,75.5828308 63.0847458,91 C63.0847458,106.417169 75.5828308,118.915254 91,118.915254 Z" id="Oval"></path>
                <path d="M91,182 C40.7420878,182 0,141.257912 0,91 C0,40.7420878 40.7420878,0 91,0 C141.257912,0 182,40.7420878 182,91 C182,141.257912 141.257912,182 91,182 Z M91,165.529412 C132.161458,165.529412 165.529412,132.161458 165.529412,91 C165.529412,49.8385425 132.161458,16.4705882 91,16.4705882 C49.8385425,16.4705882 16.4705882,49.8385425 16.4705882,91 C16.4705882,132.161458 49.8385425,165.529412 91,165.529412 Z" id="Oval-Copy"></path>
            </g>
            <g id="Group-2" transform="translate(245.000000, 35.000000)" fill="#3B3232">
                <path d="M61.0194583,0.598004274 C94.4428368,0.598004274 122.103564,27.9294369 122.103564,61.6821098 C122.103564,95.1054883 94.4428368,122.436921 61.0194583,122.436921 C27.4314327,122.436921 0.1,95.1054883 0.1,61.6821098 C0.1,27.9294369 27.4314327,0.598004274 61.0194583,0.598004274 Z M61.0194583,94.1176052 C78.9660015,94.1176052 93.2903065,79.4640058 93.2903065,61.6821098 C93.2903065,43.7355667 78.9660015,28.7526729 61.0194583,28.7526729 C43.0729152,28.7526729 28.583963,43.7355667 28.583963,61.6821098 C28.583963,79.4640058 43.0729152,94.1176052 61.0194583,94.1176052 Z M125.149536,120.955096 L125.149536,3.72630078 L169.439629,3.72630078 C178.001283,3.72630078 186.233642,7.18389166 192.160941,13.2758375 C198.088239,19.2031361 201.381183,28.5880257 201.381183,36.9850321 C201.381183,40.6072702 200.887241,45.5466857 199.734711,48.8396294 C202.039772,50.3214541 203.850891,51.9679259 205.66201,53.9436921 L205.497363,53.7790449 C213.23578,61.5174626 217.516607,69.914469 217.516607,80.616536 C217.516607,91.4832502 213.23578,101.197434 205.66201,108.771205 C198.088239,116.344975 187.715467,120.955096 176.848752,120.955096 L125.149536,120.955096 Z M153.468852,92.8004277 L176.848752,92.8004277 C183.599287,92.6357805 189.197291,87.5317178 189.197291,80.616536 C189.197291,74.0306487 183.599287,70.4084106 176.848752,70.0791162 L153.468852,70.0791162 L153.468852,92.8004277 Z M153.468852,42.0890948 L169.439629,42.0890948 C171.415395,41.9244476 173.061867,38.9607983 173.061867,36.9850321 C173.061867,35.1739131 171.415395,32.2102637 169.439629,31.8809694 L153.468852,31.8809694 L153.468852,42.0890948 Z M291.690164,120.955096 L281.646686,94.2822524 L248.717249,94.2822524 L238.344476,120.955096 L208.049394,120.955096 L253.162723,3.72630078 L277.201212,3.72630078 L322.479187,120.955096 L291.690164,120.955096 Z M270.615324,66.292231 L265.181967,49.1689238 L259.583963,66.292231 L270.615324,66.292231 Z M326.513043,120.955096 L355.161654,120.955096 L355.161654,3.72630078 L326.513043,3.72630078 L326.513043,120.955096 Z M419.456379,64.6457591 L462.1,120.955096 L428.018033,120.955096 L389.161297,70.2437634 L386.526942,70.2437634 L386.526942,120.955096 L358.701568,120.955096 L358.701568,3.72630078 L401.674483,3.72630078 C410.236137,3.72630078 418.303849,7.18389166 424.231148,13.1111903 C430.158446,19.2031361 433.616037,28.4233785 433.616037,36.9850321 C433.616037,48.1810407 428.18268,59.0477548 419.456379,64.6457591 Z M386.526942,31.7163222 L386.526942,42.253742 L401.674483,42.253742 C403.979544,42.253742 405.626016,39.2900927 405.626016,36.9850321 C405.626016,34.6799715 403.979544,31.7163222 401.674483,31.7163222 L386.526942,31.7163222 Z" id="OBAIR"></path>
                <path d="M32.88,135.16 L1.66,135.16 L1.66,137.82 L15.87,137.82 L15.87,185 L18.67,185 L18.67,137.82 L32.88,137.82 L32.88,135.16 Z M46.25,135.16 L43.45,135.16 L43.45,185 L46.25,185 L46.25,135.16 Z M104.77,135.16 L101.97,135.16 L82.65,161.69 L63.4,135.16 L60.6,135.16 L60.6,185 L63.4,185 L63.4,139.92 L82.65,166.45 L101.97,139.92 L101.97,185 L104.77,185 L104.77,135.16 Z M147.96,137.82 L147.96,135.16 L118,135.16 L118,185 L147.96,185 L147.96,182.34 L120.8,182.34 L120.8,155.74 L144.6,155.74 L144.6,153.08 L120.8,153.08 L120.8,137.82 L147.96,137.82 Z M185.41,135.16 L154.19,135.16 L154.19,137.82 L168.4,137.82 L168.4,185 L171.2,185 L171.2,137.82 L185.41,137.82 L185.41,135.16 Z M207.32,155.6 L196.4,155.6 L196.4,185 L193.6,185 L193.6,135.16 L211.59,135.16 C217.26,135.16 221.88,139.78 221.88,145.38 C221.88,151.05 217.26,155.67 211.59,155.67 L211.59,155.6 L210.82,155.6 L231.96,185 L228.46,185 L207.32,155.6 Z M196.4,137.82 L196.4,152.94 L211.59,152.94 L211.59,153.01 C215.79,153.01 219.22,149.58 219.22,145.38 C219.22,141.25 215.79,137.82 211.59,137.82 L196.4,137.82 Z M246.87,168.83 L240.71,185 L237.7,185 L256.88,135.16 L260.45,135.16 L279.63,185 L276.62,185 L270.39,168.83 L246.87,168.83 Z M258.63,138.31 L247.92,166.17 L269.34,166.17 L258.63,138.31 Z M310.43,185.77 C314.21,185.77 317.92,185.07 321.35,183.46 C324.64,181.99 327.51,179.82 329.96,177.09 L327.86,175.2 C323.45,180.17 317.08,183.11 310.43,183.11 C297.55,183.11 287.12,172.61 287.12,159.73 C287.12,146.85 297.55,136.35 310.43,136.35 C317.08,136.35 323.45,139.29 327.86,144.26 L329.96,142.37 C327.51,139.64 324.64,137.54 321.35,136 C317.92,134.39 314.21,133.76 310.43,133.76 C306.93,133.76 303.5,134.32 300.28,135.65 C297.13,136.98 294.4,138.87 291.95,141.25 C289.57,143.7 287.68,146.5 286.35,149.58 C285.02,152.8 284.32,156.23 284.32,159.73 C284.32,163.3 285.02,166.66 286.35,169.88 C287.68,173.03 289.57,175.83 291.95,178.21 C294.4,180.59 297.13,182.48 300.28,183.81 C303.5,185.14 306.93,185.77 310.43,185.77 Z M375.6,135.16 L371.75,135.16 L343.12,162.11 L343.12,135.16 L340.32,135.16 L340.32,185 L343.12,185 L343.12,165.82 L357.05,152.66 L380.08,185 L383.37,185 L359.01,150.84 L375.6,135.16 Z M422.85,137.82 L422.85,135.16 L392.89,135.16 L392.89,185 L422.85,185 L422.85,182.34 L395.69,182.34 L395.69,155.74 L419.49,155.74 L419.49,153.08 L395.69,153.08 L395.69,137.82 L422.85,137.82 Z M445.81,155.6 L434.89,155.6 L434.89,185 L432.09,185 L432.09,135.16 L450.08,135.16 C455.75,135.16 460.37,139.78 460.37,145.38 C460.37,151.05 455.75,155.67 450.08,155.67 L450.08,155.6 L449.31,155.6 L470.45,185 L466.95,185 L445.81,155.6 Z M434.89,137.82 L434.89,152.94 L450.08,152.94 L450.08,153.01 C454.28,153.01 457.71,149.58 457.71,145.38 C457.71,141.25 454.28,137.82 450.08,137.82 L434.89,137.82 Z" id="TIMETRACKER"></path>
            </g>
        </g>
    </g>
</svg>