<?xml version="1.0" encoding="UTF-8"?>
<svg width="759px" height="256px" viewBox="0 0 759 256" version="1.1" xmlns="http://www.w3.org/2000/svg" xmlns:xlink="http://www.w3.org/1999/xlink">
    <!-- Generator: Sketch 46.2 (44496) - http://www.bohemiancoding.com/sketch -->
    <title>Chronograph Logo Rect no Claim</title>
    <desc>Created with Sketch.</desc>
    <defs></defs>
    <g id="Page-1" stroke="none" stroke-width="1" fill="none" fill-rule="evenodd">
        <g id="Chronograph-Logo-Rect-no-Claim">
            <g id="Group" transform="translate(43.000000, 39.000000)" fill-rule="nonzero" fill="#FF007B">
                <path d="M91,152 C57.3106303,152 30,124.68937 30,91 C30,57.3106303 57.3106303,30 91,30 C124.68937,30 152,57.3106303 152,91 C152,124.68937 124.68937,152 91,152 Z M91,118.915254 C106.417169,118.915254 118.915254,106.417169 118.915254,91 C118.915254,75.5828308 106.417169,63.0847458 91,63.0847458 C75.5828308,63.0847458 63.0847458,75.5828308 63.0847458,91 C63.0847458,106.417169 75.5828308,118.915254 91,118.915254 Z" id="Oval"></path>
                <path d="M91,182 C40.7420878,182 0,141.257912 0,91 C0,40.7420878 40.7420878,0 91,0 C141.257912,0 182,40.7420878 182,91 C182,141.257912 141.257912,182 91,182 Z M91,165.529412 C132.161458,165.529412 165.529412,132.161458 165.529412,91 C165.529412,49.8385425 132.161458,16.4705882 91,16.4705882 C49.8385425,16.4705882 16.4705882,49.8385425 16.4705882,91 C16.4705882,132.161458 49.8385425,165.529412 91,165.529412 Z" id="Oval-Copy"></path>
            </g>
            <g id="Group-2" transform="translate(245.000000, 70.000000)" fill="#3B3232">
                <path d="M61.0194583,0.598004274 C94.4428368,0.598004274 122.103564,27.9294369 122.103564,61.6821098 C122.103564,95.1054883 94.4428368,122.436921 61.0194583,122.436921 C27.4314327,122.436921 0.1,95.1054883 0.1,61.6821098 C0.1,27.9294369 27.4314327,0.598004274 61.0194583,0.598004274 Z M61.0194583,94.1176052 C78.9660015,94.1176052 93.2903065,79.4640058 93.2903065,61.6821098 C93.2903065,43.7355667 78.9660015,28.7526729 61.0194583,28.7526729 C43.0729152,28.7526729 28.583963,43.7355667 28.583963,61.6821098 C28.583963,79.4640058 43.0729152,94.1176052 61.0194583,94.1176052 Z M125.149536,120.955096 L125.149536,3.72630078 L169.439629,3.72630078 C178.001283,3.72630078 186.233642,7.18389166 192.160941,13.2758375 C198.088239,19.2031361 201.381183,28.5880257 201.381183,36.9850321 C201.381183,40.6072702 200.887241,45.5466857 199.734711,48.8396294 C202.039772,50.3214541 203.850891,51.9679259 205.66201,53.9436921 L205.497363,53.7790449 C213.23578,61.5174626 217.516607,69.914469 217.516607,80.616536 C217.516607,91.4832502 213.23578,101.197434 205.66201,108.771205 C198.088239,116.344975 187.715467,120.955096 176.848752,120.955096 L125.149536,120.955096 Z M153.468852,92.8004277 L176.848752,92.8004277 C183.599287,92.6357805 189.197291,87.5317178 189.197291,80.616536 C189.197291,74.0306487 183.599287,70.4084106 176.848752,70.0791162 L153.468852,70.0791162 L153.468852,92.8004277 Z M153.468852,42.0890948 L169.439629,42.0890948 C171.415395,41.9244476 173.061867,38.9607983 173.061867,36.9850321 C173.061867,35.1739131 171.415395,32.2102637 169.439629,31.8809694 L153.468852,31.8809694 L153.468852,42.0890948 Z M291.690164,120.955096 L281.646686,94.2822524 L248.717249,94.2822524 L238.344476,120.955096 L208.049394,120.955096 L253.162723,3.72630078 L277.201212,3.72630078 L322.479187,120.955096 L291.690164,120.955096 Z M270.615324,66.292231 L265.181967,49.1689238 L259.583963,66.292231 L270.615324,66.292231 Z M326.513043,120.955096 L355.161654,120.955096 L355.161654,3.72630078 L326.513043,3.72630078 L326.513043,120.955096 Z M419.456379,64.6457591 L462.1,120.955096 L428.018033,120.955096 L389.161297,70.2437634 L386.526942,70.2437634 L386.526942,120.955096 L358.701568,120.955096 L358.701568,3.72630078 L401.674483,3.72630078 C410.236137,3.72630078 418.303849,7.18389166 424.231148,13.1111903 C430.158446,19.2031361 433.616037,28.4233785 433.616037,36.9850321 C433.616037,48.1810407 428.18268,59.0477548 419.456379,64.6457591 Z M386.526942,31.7163222 L386.526942,42.253742 L401.674483,42.253742 C403.979544,42.253742 405.626016,39.2900927 405.626016,36.9850321 C405.626016,34.6799715 403.979544,31.7163222 401.674483,31.7163222 L386.526942,31.7163222 Z" id="OBAIR"></path>
            </g>
        </g>
    </g>
</svg>