<?xml version="1.0" encoding="UTF-8"?>
<svg width="512px" height="512px" viewBox="0 0 512 512" version="1.1" xmlns="http://www.w3.org/2000/svg" xmlns:xlink="http://www.w3.org/1999/xlink">
    <!-- Generator: Sketch 46.2 (44496) - http://www.bohemiancoding.com/sketch -->
    <title>Chronograph Logo Square Copy</title>
    <desc>Created with Sketch.</desc>
    <defs></defs>
    <g id="Page-1" stroke="none" stroke-width="1" fill="none" fill-rule="evenodd">
        <g id="Chronograph-Logo-Square-Copy">
            <g id="Group-3" transform="translate(48.000000, 28.000000)">
                <g id="Group" transform="translate(53.000000, 0.000000)" fill-rule="nonzero" fill="#FF007B">
                    <path d="M155.446686,259.07781 C98.2127965,259.07781 51.815562,212.680575 51.815562,155.446686 C51.815562,98.2127965 98.2127965,51.815562 155.446686,51.815562 C212.680575,51.815562 259.07781,98.2127965 259.07781,155.446686 C259.07781,212.680575 212.680575,259.07781 155.446686,259.07781 Z M155.446686,202.871099 C181.638466,202.871099 202.871099,181.638466 202.871099,155.446686 C202.871099,129.254906 181.638466,108.022273 155.446686,108.022273 C129.254906,108.022273 108.022273,129.254906 108.022273,155.446686 C108.022273,181.638466 129.254906,202.871099 155.446686,202.871099 Z" id="Oval"></path>
                    <path d="M155,310 C69.3958638,310 0,240.604136 0,155 C0,69.3958638 69.3958638,0 155,0 C240.604136,0 310,69.3958638 310,155 C310,240.604136 240.604136,310 155,310 Z M155,281.945701 C225.110175,281.945701 281.945701,225.110175 281.945701,155 C281.945701,84.8898251 225.110175,28.0542986 155,28.0542986 C84.8898251,28.0542986 28.0542986,84.8898251 28.0542986,155 C28.0542986,225.110175 84.8898251,281.945701 155,281.945701 Z" id="Oval-Copy"></path>
                </g>
                <g id="Group-2" transform="translate(0.000000, 343.000000)" fill="#3B3232">
                    <path d="M54.7331231,0.531982338 C84.7131646,0.531982338 109.524233,24.8459213 109.524233,54.8721713 C109.524233,84.6054822 84.7131646,108.919421 54.7331231,108.919421 C24.6053967,108.919421 0.0896978187,84.6054822 0.0896978187,54.8721713 C0.0896978187,24.8459213 24.6053967,0.531982338 54.7331231,0.531982338 Z M54.7331231,83.7266652 C70.8307809,83.7266652 83.6793701,70.6908786 83.6793701,54.8721713 C83.6793701,38.9069945 70.8307809,25.5782689 54.7331231,25.5782689 C38.6354654,25.5782689 25.6391913,38.9069945 25.6391913,54.8721713 C25.6391913,70.6908786 38.6354654,83.7266652 54.7331231,83.7266652 Z M112.256404,107.601196 L112.256404,3.31490307 L151.983651,3.31490307 C159.663268,3.31490307 167.047515,6.39076282 172.364172,11.8101348 C177.68083,17.0830372 180.634529,25.4317994 180.634529,32.9017445 C180.634529,36.1240738 180.191474,40.5181591 179.157679,43.4475494 C181.225268,44.765775 182.849803,46.2304701 184.474337,47.9881042 L184.326652,47.8416347 C191.267844,54.7257018 195.107652,62.1956469 195.107652,71.7161652 C195.107652,81.383153 191.267844,90.0248542 184.474337,96.7624517 C177.68083,103.500049 168.376679,107.601196 158.629473,107.601196 L112.256404,107.601196 Z M137.658213,82.5549091 L158.629473,82.5549091 C164.684556,82.4084396 169.705843,77.8678847 169.705843,71.7161652 C169.705843,65.8573847 164.684556,62.6350554 158.629473,62.3421164 L137.658213,62.3421164 L137.658213,82.5549091 Z M137.658213,37.4422994 L151.983651,37.4422994 C153.755871,37.2958299 155.23272,34.6593786 155.23272,32.9017445 C155.23272,31.2905799 153.755871,28.6541286 151.983651,28.3611896 L137.658213,28.3611896 L137.658213,37.4422994 Z M261.639714,107.601196 L252.630933,83.8731347 L223.093947,83.8731347 L213.789796,107.601196 L186.615768,107.601196 L227.08144,3.31490307 L248.64344,3.31490307 L289.256797,107.601196 L261.639714,107.601196 Z M242.736043,58.9733176 L237.86244,43.7404884 L232.841152,58.9733176 L242.736043,58.9733176 Z M292.875078,107.601196 L318.572256,107.601196 L318.572256,3.31490307 L292.875078,3.31490307 L292.875078,107.601196 Z M376.243223,57.5086225 L414.49362,107.601196 L383.922839,107.601196 L349.069195,62.4885859 L346.706236,62.4885859 L346.706236,107.601196 L321.747482,107.601196 L321.747482,3.31490307 L360.29325,3.31490307 C367.972866,3.31490307 375.209428,6.39076282 380.526086,11.6636653 C385.842743,17.0830372 388.944127,25.2853299 388.944127,32.9017445 C388.944127,42.8616713 384.070524,52.5286591 376.243223,57.5086225 Z M346.706236,28.2147201 L346.706236,37.5887689 L360.29325,37.5887689 C362.360839,37.5887689 363.837688,34.9523177 363.837688,32.9017445 C363.837688,30.8511713 362.360839,28.2147201 360.29325,28.2147201 L346.706236,28.2147201 Z" id="OBAIR"></path>
                </g>
            </g>
        </g>
    </g>
</svg>